<?xml version="1.0" encoding="UTF-8"?>
<svg xmlns="http://www.w3.org/2000/svg" xmlns:xlink="http://www.w3.org/1999/xlink" width="64px" height="64px" viewBox="0 0 64 64" version="1.1">
<g id="surface1">
<path style=" stroke:none;fill-rule:nonzero;fill:rgb(100%,100%,100%);fill-opacity:1;" d="M 9.164062 0.375 C 8.550781 0.558594 7.984375 1.089844 7.625 1.832031 L 7.265625 2.542969 L 7.226562 31.972656 C 7.199219 53.398438 7.226562 61.546875 7.332031 61.917969 C 7.421875 62.25 7.636719 62.605469 7.96875 62.894531 C 8.96875 63.792969 7.09375 63.742188 31.972656 63.742188 C 56.855469 63.742188 54.980469 63.808594 55.976562 62.894531 C 56.308594 62.59375 56.519531 62.25 56.613281 61.917969 C 56.839844 61.109375 56.746094 14.714844 56.519531 14.210938 C 56.269531 13.65625 43.34375 0.816406 42.722656 0.507812 C 42.253906 0.257812 41.921875 0.257812 25.875 0.257812 C 16.871094 0.257812 9.351562 0.324219 9.164062 0.375 Z M 41.328125 8.867188 L 41.328125 15.269531 L 40.765625 14.941406 C 40.40625 14.726562 39.945312 14.582031 39.464844 14.554688 C 38.800781 14.488281 38.695312 14.515625 38.402344 14.804688 C 38.03125 15.175781 37.964844 15.796875 38.269531 16.222656 C 38.390625 16.367188 38.761719 16.566406 39.144531 16.699219 C 39.574219 16.816406 39.890625 17 40.011719 17.171875 C 40.140625 17.386719 40.199219 18.113281 40.238281 20.292969 C 40.289062 23.03125 40.300781 23.175781 40.609375 23.839844 C 40.78125 24.210938 41.113281 24.738281 41.328125 24.976562 L 41.738281 25.441406 L 41.285156 25.957031 C 40.433594 26.949219 40.300781 27.488281 40.222656 30.71875 C 40.140625 33.972656 40.128906 34.023438 39.183594 34.179688 C 38.496094 34.300781 38.097656 34.726562 38.097656 35.292969 C 38.097656 36.308594 39.226562 36.65625 40.527344 36.046875 C 41.246094 35.71875 41.699219 35.265625 42.109375 34.488281 C 42.386719 33.957031 42.386719 33.773438 42.457031 30.957031 C 42.496094 28.960938 42.574219 27.886719 42.664062 27.714844 C 42.796875 27.476562 43.636719 26.667969 43.757812 26.667969 C 43.78125 26.667969 44.089844 26.605469 44.460938 26.550781 C 45.308594 26.390625 45.695312 26.046875 45.695312 25.441406 C 45.695312 24.832031 45.308594 24.488281 44.472656 24.332031 C 44.113281 24.261719 43.71875 24.15625 43.585938 24.09375 C 43.410156 24 42.785156 23.375 42.546875 23.042969 C 42.546875 23.03125 42.496094 21.65625 42.457031 19.976562 C 42.386719 16.949219 42.386719 16.933594 42.027344 16.328125 C 41.84375 15.996094 41.699219 15.707031 41.722656 15.695312 C 41.75 15.664062 44.621094 15.625 48.140625 15.613281 L 54.515625 15.574219 L 54.515625 42.910156 L 9.445312 42.910156 L 9.445312 23.019531 C 9.445312 10.386719 9.496094 3.007812 9.566406 2.808594 L 9.679688 2.492188 L 41.308594 2.492188 L 41.308594 8.878906 Z M 48.246094 8.800781 L 52.855469 13.390625 L 43.585938 13.390625 L 43.585938 8.800781 C 43.585938 6.273438 43.585938 4.214844 43.625 4.214844 C 43.636719 4.214844 45.734375 6.261719 48.257812 8.800781 Z M 54.527344 53.171875 C 54.527344 59.273438 54.488281 61.257812 54.382812 61.363281 C 54.167969 61.574219 9.816406 61.574219 9.605469 61.363281 C 9.484375 61.257812 9.457031 59.273438 9.457031 53.171875 L 9.457031 45.144531 L 54.542969 45.144531 L 54.542969 53.171875 Z M 54.527344 53.171875 "/>
<path style=" stroke:none;fill-rule:nonzero;fill:rgb(100%,100%,100%);fill-opacity:1;" d="M 22.609375 14.703125 C 21.851562 14.980469 21.183594 15.574219 20.816406 16.355469 C 20.46875 17.054688 20.46875 17.082031 20.402344 19.976562 C 20.339844 22.609375 20.308594 22.925781 20.097656 23.296875 C 19.777344 23.828125 19.222656 24.167969 18.410156 24.316406 C 16.738281 24.621094 16.75 26.234375 18.410156 26.550781 C 19.273438 26.710938 19.847656 27.09375 20.148438 27.742188 C 20.375 28.191406 20.402344 28.496094 20.402344 30.675781 C 20.402344 32.011719 20.46875 33.386719 20.535156 33.746094 C 20.84375 35.132812 21.984375 36.195312 23.351562 36.308594 C 24.003906 36.378906 24.121094 36.351562 24.445312 36.074219 C 24.707031 35.851562 24.785156 35.664062 24.785156 35.320312 C 24.785156 34.699219 24.507812 34.417969 23.699219 34.179688 C 22.691406 33.902344 22.648438 33.757812 22.648438 30.808594 C 22.648438 27.609375 22.488281 26.933594 21.410156 25.78125 L 21.109375 25.453125 L 21.480469 25.042969 C 22.488281 23.972656 22.648438 23.269531 22.648438 20.085938 C 22.648438 17.347656 22.714844 17.015625 23.40625 16.777344 C 23.632812 16.710938 23.910156 16.644531 24.015625 16.644531 C 24.28125 16.644531 24.734375 16.152344 24.761719 15.839844 C 24.816406 15.335938 24.761719 15.148438 24.457031 14.847656 C 24.109375 14.488281 23.390625 14.433594 22.609375 14.726562 Z M 22.609375 14.703125 "/>
<path style=" stroke:none;fill-rule:nonzero;fill:rgb(100%,100%,100%);fill-opacity:1;" d="M 23.234375 48.242188 C 21.480469 48.542969 20.125 49.917969 19.644531 51.90625 C 19.566406 52.238281 19.5 53.070312 19.5 53.757812 C 19.488281 55.835938 19.910156 57.066406 21.015625 58.171875 C 21.503906 58.675781 21.917969 58.945312 22.464844 59.140625 C 23.859375 59.667969 25.730469 59.378906 26.859375 58.453125 L 27.136719 58.214844 L 25.890625 57.15625 L 25.515625 57.460938 C 25.066406 57.832031 24.496094 57.964844 23.644531 57.882812 C 22.089844 57.738281 21.160156 55.953125 21.320312 53.386719 C 21.441406 51.308594 22.089844 50.144531 23.351562 49.773438 C 24.136719 49.550781 24.589844 49.617188 25.421875 50.082031 L 26.023438 50.398438 L 26.539062 49.882812 C 27.136719 49.273438 27.097656 49.152344 26.128906 48.664062 C 25.648438 48.414062 24.175781 48.054688 23.894531 48.121094 C 23.859375 48.136719 23.578125 48.191406 23.234375 48.242188 Z M 23.234375 48.242188 "/>
<path style=" stroke:none;fill-rule:nonzero;fill:rgb(100%,100%,100%);fill-opacity:1;" d="M 32.027344 48.28125 C 31.679688 48.359375 31.242188 48.53125 31.070312 48.636719 C 30.101562 49.273438 29.542969 50.398438 29.660156 51.46875 C 29.804688 52.644531 30.40625 53.335938 32.183594 54.308594 C 33.648438 55.105469 34.074219 55.464844 34.207031 55.964844 C 34.457031 56.890625 33.910156 57.738281 32.96875 57.921875 C 32.359375 58.039062 31.230469 57.882812 30.460938 57.582031 C 29.863281 57.34375 29.742188 57.449219 29.703125 58.171875 C 29.671875 58.71875 29.691406 58.71875 30.296875 59.03125 C 30.84375 59.308594 31.085938 59.339844 32.226562 59.339844 C 33.289062 59.339844 33.632812 59.285156 34.101562 59.074219 C 35.960938 58.214844 36.542969 55.925781 35.265625 54.460938 C 34.988281 54.128906 34.378906 53.730469 33.476562 53.253906 C 31.949219 52.460938 31.363281 51.917969 31.363281 51.296875 C 31.363281 50.78125 31.746094 50.160156 32.238281 49.90625 C 32.691406 49.667969 34.074219 49.628906 34.445312 49.84375 C 34.832031 50.039062 34.816406 50.039062 35.171875 49.339844 C 35.53125 48.625 35.507812 48.585938 34.722656 48.359375 C 33.941406 48.148438 32.691406 48.109375 32.011719 48.292969 Z M 32.027344 48.28125 "/>
<path style=" stroke:none;fill-rule:nonzero;fill:rgb(100%,100%,100%);fill-opacity:1;" d="M 40.367188 48.242188 C 38.773438 48.574219 37.832031 49.679688 37.832031 51.21875 C 37.820312 52.539062 38.46875 53.320312 40.433594 54.367188 C 41.617188 55 41.921875 55.214844 42.242188 55.671875 C 42.664062 56.292969 42.386719 57.378906 41.699219 57.726562 C 41.125 58.015625 39.851562 57.988281 38.90625 57.65625 C 38.496094 57.527344 38.125 57.394531 38.085938 57.394531 C 38.03125 57.394531 37.941406 57.65625 37.859375 57.976562 C 37.714844 58.519531 37.726562 58.574219 37.976562 58.769531 C 38.414062 59.101562 39.070312 59.273438 40.140625 59.339844 C 41.296875 59.402344 41.894531 59.273438 42.722656 58.769531 C 43.597656 58.226562 43.984375 57.527344 44.035156 56.46875 C 44.113281 54.90625 43.570312 54.207031 41.417969 53.121094 C 40.046875 52.40625 39.652344 52.066406 39.519531 51.445312 C 39.398438 50.953125 39.757812 50.265625 40.261719 49.960938 C 40.726562 49.679688 42.109375 49.589844 42.53125 49.832031 C 42.929688 50.039062 43 50 43.304688 49.328125 C 43.570312 48.78125 43.585938 48.675781 43.421875 48.585938 C 42.90625 48.253906 41.175781 48.042969 40.34375 48.230469 Z M 40.367188 48.242188 "/>
</g>
</svg>
