<?xml version="1.0" encoding="UTF-8"?>
<svg xmlns="http://www.w3.org/2000/svg" xmlns:xlink="http://www.w3.org/1999/xlink" width="64px" height="64px" viewBox="0 0 64 64" version="1.1">
<g id="surface1">
<path style=" stroke:none;fill-rule:nonzero;fill:rgb(100%,100%,100%);fill-opacity:1;" d="M 9.164062 0.375 C 8.550781 0.558594 7.984375 1.089844 7.625 1.832031 L 7.265625 2.542969 L 7.226562 31.972656 C 7.199219 53.398438 7.226562 61.546875 7.332031 61.917969 C 7.421875 62.25 7.636719 62.605469 7.96875 62.894531 C 8.96875 63.792969 7.09375 63.742188 31.972656 63.742188 C 56.855469 63.742188 54.980469 63.808594 55.976562 62.894531 C 56.308594 62.59375 56.519531 62.25 56.613281 61.917969 C 56.839844 61.109375 56.746094 14.714844 56.519531 14.210938 C 56.269531 13.65625 43.34375 0.816406 42.722656 0.507812 C 42.253906 0.257812 41.921875 0.257812 25.875 0.257812 C 16.871094 0.257812 9.351562 0.324219 9.164062 0.375 Z M 41.328125 9.050781 L 41.328125 15.640625 L 54.527344 15.574219 L 54.527344 42.910156 L 9.445312 42.910156 L 9.445312 23.019531 C 9.445312 10.386719 9.496094 3.007812 9.566406 2.808594 L 9.679688 2.492188 L 41.308594 2.492188 L 41.308594 9.066406 Z M 48.246094 8.800781 L 52.855469 13.390625 L 43.585938 13.390625 L 43.585938 8.800781 C 43.585938 6.273438 43.585938 4.214844 43.625 4.214844 C 43.636719 4.214844 45.734375 6.261719 48.257812 8.800781 Z M 54.527344 53.171875 C 54.527344 59.273438 54.488281 61.257812 54.382812 61.363281 C 54.167969 61.574219 9.816406 61.574219 9.605469 61.363281 C 9.484375 61.257812 9.457031 59.273438 9.457031 53.171875 L 9.457031 45.144531 L 54.542969 45.144531 L 54.542969 53.171875 Z M 54.527344 53.171875 "/>
<path style=" stroke:none;fill-rule:nonzero;fill:rgb(100%,100%,100%);fill-opacity:1;" d="M 25.332031 19.09375 C 25.132812 19.210938 23.460938 20.824219 21.625 22.660156 C 18.410156 25.890625 18.289062 26.019531 18.289062 26.484375 C 18.289062 26.949219 18.410156 27.09375 21.878906 30.542969 C 25.359375 34.011719 25.492188 34.128906 25.957031 34.128906 C 26.570312 34.128906 27.003906 33.664062 27.003906 33.019531 C 27.003906 32.597656 26.804688 32.371094 23.953125 29.527344 L 20.90625 26.484375 L 23.953125 23.445312 C 26.820312 20.585938 27.003906 20.375 27.003906 19.953125 C 27.003906 19.609375 26.910156 19.433594 26.621094 19.183594 C 26.167969 18.796875 25.835938 18.773438 25.320312 19.105469 Z M 25.332031 19.09375 "/>
<path style=" stroke:none;fill-rule:nonzero;fill:rgb(100%,100%,100%);fill-opacity:1;" d="M 38.652344 19 C 38.257812 19.238281 38.109375 19.5 38.097656 20.015625 C 38.097656 20.46875 38.21875 20.601562 41.113281 23.507812 L 44.128906 26.535156 L 41.113281 29.550781 C 38.191406 32.488281 38.097656 32.597656 38.097656 33.074219 C 38.097656 33.890625 38.933594 34.394531 39.652344 33.996094 C 39.785156 33.917969 41.460938 32.300781 43.359375 30.410156 C 46.53125 27.226562 46.808594 26.917969 46.808594 26.535156 C 46.808594 26.152344 46.53125 25.824219 43.15625 22.476562 C 39.371094 18.695312 39.277344 18.628906 38.652344 19 Z M 38.652344 19 "/>
<path style=" stroke:none;fill-rule:nonzero;fill:rgb(100%,100%,100%);fill-opacity:1;" d="M 11.945312 53.875 L 11.945312 59.390625 L 13.816406 59.390625 L 13.816406 54.429688 L 18.542969 54.429688 L 18.570312 56.878906 L 18.609375 59.339844 L 20.414062 59.417969 L 20.414062 48.375 L 18.542969 48.375 L 18.542969 53.214844 L 13.816406 53.214844 L 13.816406 48.375 L 11.945312 48.375 L 11.945312 53.890625 Z M 11.945312 53.875 "/>
<path style=" stroke:none;fill-rule:nonzero;fill:rgb(100%,100%,100%);fill-opacity:1;" d="M 22.554688 48.945312 L 22.597656 49.535156 L 24.253906 49.578125 L 25.902344 49.617188 L 25.902344 59.417969 L 27.710938 59.339844 L 27.75 54.472656 L 27.773438 49.605469 L 31.015625 49.605469 L 31.015625 48.359375 L 22.539062 48.359375 L 22.582031 48.945312 Z M 22.554688 48.945312 "/>
<path style=" stroke:none;fill-rule:nonzero;fill:rgb(100%,100%,100%);fill-opacity:1;" d="M 33.140625 53.835938 L 33.179688 59.328125 L 34.085938 59.363281 L 34.988281 59.402344 L 35.015625 55.648438 L 35.054688 51.890625 L 35.652344 53.375 C 35.984375 54.195312 36.542969 55.542969 36.886719 56.386719 L 37.523438 57.910156 L 38.324219 57.871094 L 39.132812 57.832031 L 40.34375 54.855469 L 41.535156 51.878906 L 41.578125 55.632812 L 41.605469 59.390625 L 43.410156 59.308594 L 43.453125 53.824219 L 43.476562 48.335938 L 42.519531 48.375 L 41.550781 48.414062 L 39.972656 52.066406 C 39.09375 54.074219 38.363281 55.726562 38.335938 55.753906 C 38.308594 55.78125 37.566406 54.128906 36.675781 52.105469 L 35.054688 48.414062 L 33.128906 48.347656 L 33.15625 53.835938 Z M 33.140625 53.835938 "/>
<path style=" stroke:none;fill-rule:nonzero;fill:rgb(100%,100%,100%);fill-opacity:1;" d="M 46.183594 53.875 L 46.183594 59.390625 L 49.652344 59.363281 L 53.109375 59.328125 L 53.148438 58.675781 L 53.191406 58.015625 L 48.074219 58.015625 L 48.074219 48.347656 L 46.203125 48.347656 L 46.203125 53.863281 Z M 46.183594 53.875 "/>
</g>
</svg>
