<?xml version="1.0" encoding="UTF-8"?>
<svg xmlns="http://www.w3.org/2000/svg" xmlns:xlink="http://www.w3.org/1999/xlink" width="64px" height="64px" viewBox="0 0 64 64" version="1.1">
<g id="surface1">
<path style=" stroke:none;fill-rule:nonzero;fill:rgb(100%,100%,100%);fill-opacity:1;" d="M 8.960938 0.609375 L 8.621094 0.945312 L 8.621094 38.121094 L 7.273438 38.121094 C 5.585938 38.121094 4.894531 38.425781 4.394531 39.339844 L 4.074219 39.9375 L 4.074219 47.617188 C 4.074219 56.011719 4.074219 55.855469 4.882812 56.550781 C 5.449219 57.03125 6.101562 57.191406 7.476562 57.191406 L 8.609375 57.191406 L 8.609375 60.121094 C 8.609375 62.078125 8.71875 63.167969 8.945312 63.390625 L 9.28125 63.722656 L 54.703125 63.722656 L 55.039062 63.390625 C 55.261719 63.167969 55.378906 62.078125 55.378906 60.121094 L 55.378906 57.191406 L 56.523438 57.191406 C 57.886719 57.191406 58.53125 57.03125 59.105469 56.550781 C 59.925781 55.855469 59.914062 56.027344 59.914062 47.617188 L 59.914062 39.9375 L 59.605469 39.355469 C 59.105469 38.425781 58.414062 38.136719 56.726562 38.136719 L 55.378906 38.136719 L 55.378906 12.867188 L 48.921875 6.5625 L 42.464844 0.277344 L 9.28125 0.277344 L 8.945312 0.609375 Z M 40.949219 8.160156 L 40.949219 13.882812 L 41.304688 14.160156 C 41.671875 14.4375 41.816406 14.449219 47.421875 14.449219 L 53.191406 14.449219 L 53.191406 38.136719 L 10.808594 38.136719 L 10.808594 2.453125 L 40.9375 2.453125 L 40.9375 8.160156 Z M 50.636719 11.300781 L 51.589844 12.253906 L 43.136719 12.253906 L 43.136719 4.066406 L 46.410156 7.203125 C 48.199219 8.933594 50.09375 10.777344 50.636719 11.300781 Z M 57.695312 47.617188 L 57.65625 54.9375 L 6.34375 54.9375 L 6.304688 47.617188 L 6.273438 40.300781 L 57.726562 40.300781 Z M 53.191406 59.367188 L 53.191406 61.546875 L 10.808594 61.546875 L 10.808594 57.191406 L 53.191406 57.191406 Z M 53.191406 59.367188 "/>
<path style=" stroke:none;fill-rule:nonzero;fill:rgb(100%,100%,100%);fill-opacity:1;" d="M 33.246094 19.980469 C 33.039062 20.160156 32.351562 21.925781 30.972656 25.921875 C 29.871094 29.058594 28.976562 31.746094 28.976562 31.890625 C 28.976562 32.050781 29.121094 32.3125 29.3125 32.488281 C 29.742188 32.921875 30.386719 32.9375 30.796875 32.511719 C 31 32.3125 31.761719 30.367188 33.085938 26.53125 C 34.890625 21.351562 35.054688 20.808594 34.890625 20.445312 C 34.613281 19.796875 33.777344 19.5625 33.246094 19.980469 Z M 33.246094 19.980469 "/>
<path style=" stroke:none;fill-rule:nonzero;fill:rgb(100%,100%,100%);fill-opacity:1;" d="M 20.507812 23.089844 C 19.203125 24.425781 18.058594 25.691406 17.96875 25.894531 C 17.882812 26.09375 17.835938 26.417969 17.894531 26.578125 C 17.941406 26.75 19.074219 28 20.40625 29.378906 C 23.050781 32.0625 23.195312 32.15625 23.945312 31.574219 C 24.222656 31.367188 24.296875 31.175781 24.296875 30.785156 C 24.296875 30.324219 24.132812 30.105469 22.371094 28.273438 L 20.449219 26.285156 L 22.371094 24.296875 C 24.164062 22.449219 24.296875 22.277344 24.296875 21.78125 C 24.296875 21.1875 24 20.855469 23.328125 20.738281 C 22.886719 20.636719 22.8125 20.695312 20.496094 23.078125 Z M 20.507812 23.089844 "/>
<path style=" stroke:none;fill-rule:nonzero;fill:rgb(100%,100%,100%);fill-opacity:1;" d="M 40.054688 20.988281 C 39.777344 21.203125 39.703125 21.378906 39.703125 21.800781 C 39.703125 22.289062 39.835938 22.449219 41.628906 24.308594 L 43.550781 26.300781 L 41.628906 28.289062 C 39.851562 30.117188 39.703125 30.324219 39.703125 30.773438 C 39.703125 31.164062 39.777344 31.339844 40.054688 31.574219 C 40.804688 32.15625 40.949219 32.0625 43.59375 29.378906 C 44.945312 28 46.074219 26.75 46.105469 26.578125 C 46.164062 26.417969 46.117188 26.09375 46.03125 25.894531 C 45.941406 25.691406 44.8125 24.441406 43.503906 23.105469 C 40.9375 20.503906 40.789062 20.40625 40.039062 20.988281 Z M 40.054688 20.988281 "/>
<path style=" stroke:none;fill-rule:nonzero;fill:rgb(100%,100%,100%);fill-opacity:1;" d="M 24.296875 42.144531 C 23.855469 42.609375 23.886719 43.277344 24.367188 43.667969 C 24.703125 43.960938 24.867188 43.972656 26.378906 43.972656 L 28.023438 43.972656 L 28.023438 50.351562 L 27.671875 50.769531 C 26.789062 51.816406 25 51.164062 25 49.78125 C 25 48.855469 23.796875 48.40625 23.105469 49.085938 C 22.800781 49.40625 22.769531 49.507812 22.828125 50.160156 C 23.03125 52.121094 24.914062 53.660156 26.863281 53.460938 C 28.300781 53.296875 29.742188 52.195312 30.078125 50.945312 C 30.148438 50.667969 30.222656 48.636719 30.222656 46.460938 C 30.253906 41.332031 30.5625 41.796875 27.128906 41.796875 C 24.644531 41.796875 24.617188 41.796875 24.308594 42.128906 Z M 24.296875 42.144531 "/>
<path style=" stroke:none;fill-rule:nonzero;fill:rgb(100%,100%,100%);fill-opacity:1;" d="M 35.523438 42 C 33.324219 42.78125 32.539062 45.539062 33.96875 47.398438 C 34.59375 48.199219 35.566406 48.621094 37.03125 48.722656 C 38 48.796875 38.367188 48.867188 38.574219 49.054688 C 39.203125 49.609375 39.058594 50.742188 38.308594 51.105469 C 38.019531 51.25 37.398438 51.308594 35.917969 51.308594 C 33.96875 51.308594 33.890625 51.308594 33.585938 51.640625 C 33.132812 52.078125 33.132812 52.699219 33.585938 53.148438 L 33.9375 53.511719 L 36.300781 53.460938 C 38.925781 53.398438 39.308594 53.3125 40.191406 52.367188 C 40.921875 51.613281 41.128906 51.078125 41.140625 50.011719 C 41.140625 48.914062 40.863281 48.257812 40.144531 47.53125 C 39.46875 46.878906 38.867188 46.660156 37.371094 46.546875 C 36.195312 46.472656 36.050781 46.414062 35.773438 46.082031 C 35.300781 45.554688 35.332031 44.871094 35.84375 44.351562 L 36.242188 43.960938 L 38.25 43.960938 C 40.382812 43.960938 40.816406 43.859375 41.066406 43.316406 C 41.304688 42.8125 41.246094 42.476562 40.878906 42.128906 C 40.539062 41.796875 40.511719 41.796875 38.308594 41.796875 C 36.769531 41.796875 35.90625 41.867188 35.535156 42 Z M 35.523438 42 "/>
</g>
</svg>
