<?xml version="1.0" encoding="UTF-8"?>
<svg xmlns="http://www.w3.org/2000/svg" xmlns:xlink="http://www.w3.org/1999/xlink" width="64px" height="64px" viewBox="0 0 64 64" version="1.1">
<g id="surface1">
<path style=" stroke:none;fill-rule:nonzero;fill:rgb(100%,100%,100%);fill-opacity:1;" d="M 17.03125 1.402344 C 16.421875 1.519531 15.878906 1.78125 15.535156 2.167969 C 15.058594 2.65625 0.449219 27.605469 0.300781 28.15625 C 0.191406 28.566406 0.191406 28.824219 0.300781 29.230469 C 0.378906 29.519531 2.9375 34 5.984375 39.167969 L 11.503906 48.558594 L 11.503906 60.296875 L 11.8125 60.90625 C 12.15625 61.636719 12.636719 62.082031 13.375 62.417969 C 13.917969 62.652344 14.113281 62.683594 27.253906 62.683594 C 40.402344 62.683594 40.574219 62.683594 40.824219 62.441406 C 41.152344 62.109375 41.140625 61.449219 40.824219 61.144531 C 40.574219 60.933594 40.109375 60.90625 27.269531 60.855469 L 13.984375 60.785156 L 13.691406 60.417969 L 13.390625 60.058594 L 13.390625 53.046875 C 13.390625 45.285156 13.347656 45.65625 14.207031 45.300781 C 14.832031 45.046875 49.207031 45.046875 49.828125 45.300781 C 50.675781 45.65625 50.652344 45.269531 50.652344 53.046875 L 50.652344 60.058594 L 50.347656 60.417969 L 50.058594 60.785156 L 47.011719 60.855469 C 44.238281 60.90625 43.9375 60.933594 43.699219 61.144531 C 43.363281 61.449219 43.355469 62.109375 43.699219 62.441406 C 43.9375 62.667969 44.109375 62.683594 47.019531 62.683594 C 49.9375 62.683594 50.144531 62.652344 50.652344 62.417969 C 51.394531 62.082031 51.871094 61.636719 52.214844 60.90625 L 52.519531 60.296875 L 52.519531 48.558594 L 58.042969 39.167969 C 61.089844 33.988281 63.644531 29.519531 63.722656 29.230469 C 63.832031 28.824219 63.832031 28.566406 63.722656 28.15625 C 63.59375 27.667969 52.824219 9.214844 52.480469 8.886719 C 52.402344 8.816406 52.175781 8.699219 51.988281 8.671875 C 51.511719 8.550781 50.839844 9.1875 50.941406 9.667969 C 50.996094 9.847656 53.457031 14.113281 56.441406 19.191406 C 59.421875 24.25 61.886719 28.503906 61.910156 28.621094 C 61.964844 28.824219 59.316406 33.40625 53.527344 43.183594 L 52.347656 45.167969 L 51.65625 44.453125 C 51.277344 44.058594 50.863281 43.707031 50.769531 43.683594 C 50.640625 43.644531 51.328125 42.371094 53.300781 39.003906 C 57.152344 32.464844 59.078125 29.050781 59.078125 28.765625 C 59.078125 28.53125 58.984375 28.183594 58.878906 27.957031 C 58.375 27.03125 46.109375 6.234375 45.921875 6.019531 C 45.417969 5.453125 45.722656 5.453125 32 5.453125 C 18.277344 5.453125 18.582031 5.453125 18.078125 6.019531 C 17.890625 6.234375 5.613281 27.046875 5.121094 27.957031 C 4.871094 28.464844 4.871094 28.996094 5.121094 29.496094 C 5.703125 30.59375 10.449219 38.574219 10.628906 38.769531 C 10.9375 39.0625 11.5625 39.074219 11.878906 38.78125 C 12.394531 38.316406 12.277344 38.015625 9.453125 33.246094 L 6.792969 28.730469 L 13.082031 18.011719 L 19.375 7.308594 L 44.582031 7.308594 L 50.875 18.011719 L 57.167969 28.730469 L 52.863281 36.042969 L 48.574219 43.355469 L 15.402344 43.355469 L 14.75 42.265625 C 13.957031 40.925781 13.824219 40.796875 13.296875 40.796875 C 12.859375 40.796875 12.371094 41.234375 12.371094 41.621094 C 12.371094 41.707031 12.605469 42.214844 12.871094 42.730469 C 13.253906 43.417969 13.347656 43.65625 13.230469 43.699219 C 13.125 43.734375 12.738281 44.082031 12.34375 44.464844 L 11.652344 45.183594 L 11.375 44.71875 C 9.175781 41.074219 2.128906 28.980469 2.105469 28.792969 C 2.074219 28.652344 4.859375 23.800781 9.480469 15.941406 L 16.910156 3.292969 L 47.089844 3.292969 L 48.144531 5.109375 C 48.730469 6.105469 49.3125 7.003906 49.449219 7.082031 C 50 7.480469 50.875 7.058594 50.875 6.394531 C 50.875 6.078125 48.925781 2.65625 48.464844 2.167969 C 48.332031 2.011719 47.988281 1.753906 47.707031 1.625 L 47.207031 1.359375 L 32.371094 1.359375 C 24.207031 1.332031 17.308594 1.347656 17.03125 1.402344 Z M 17.03125 1.402344 "/>
<path style=" stroke:none;fill-rule:nonzero;fill:rgb(100%,100%,100%);fill-opacity:1;" d="M 25.097656 12.285156 C 24.316406 12.542969 23.890625 12.792969 23.417969 13.308594 C 22.378906 14.394531 22.035156 15.496094 22.035156 17.613281 C 22.035156 18.449219 22.09375 19.417969 22.15625 19.769531 L 22.277344 20.394531 L 21.453125 20.714844 C 19.332031 21.535156 17.402344 23.058594 16.78125 24.386719 C 16.300781 25.402344 16.328125 26.515625 16.84375 27.546875 C 17.390625 28.636719 18.582031 29.691406 20.15625 30.503906 C 20.84375 30.847656 21.589844 31.191406 21.839844 31.261719 L 22.292969 31.40625 L 22.171875 32.042969 C 22 33.019531 22.011719 35.390625 22.183594 36.144531 C 22.542969 37.605469 23.546875 38.941406 24.621094 39.390625 C 25.339844 39.683594 26.394531 39.734375 27.296875 39.511719 C 28.359375 39.261719 30.128906 38.371094 31.175781 37.613281 L 32.015625 36.980469 L 32.859375 37.613281 C 33.90625 38.386719 35.671875 39.261719 36.746094 39.511719 C 37.613281 39.734375 38.6875 39.683594 39.40625 39.390625 C 39.9375 39.167969 40.796875 38.410156 41.167969 37.84375 C 41.878906 36.714844 42.144531 34.808594 41.921875 32.464844 C 41.800781 31.40625 41.800781 31.390625 42.109375 31.3125 C 42.253906 31.261719 42.980469 30.925781 43.734375 30.566406 C 45.433594 29.722656 46.625 28.6875 47.191406 27.5625 C 47.707031 26.53125 47.738281 25.417969 47.261719 24.394531 C 46.636719 23.074219 44.703125 21.546875 42.582031 20.730469 L 41.761719 20.410156 L 41.878906 19.785156 C 41.949219 19.425781 42 18.464844 42 17.625 C 42 15.453125 41.5625 14.183594 40.480469 13.152344 C 38.796875 11.589844 35.957031 11.96875 33.03125 14.140625 C 32.515625 14.527344 32.09375 14.832031 32.050781 14.832031 C 32.015625 14.832031 31.578125 14.527344 31.074219 14.140625 C 28.980469 12.59375 26.566406 11.847656 25.167969 12.300781 Z M 27.546875 14.277344 C 28.421875 14.578125 30.503906 15.890625 30.503906 16.15625 C 30.503906 16.222656 30.199219 16.59375 29.839844 16.980469 C 29.496094 17.363281 28.910156 18.011719 28.59375 18.40625 C 28.011719 19.136719 27.972656 19.160156 27.296875 19.253906 C 26.910156 19.296875 26.035156 19.441406 25.375 19.589844 C 24.703125 19.71875 24.121094 19.800781 24.105469 19.769531 C 23.957031 19.625 23.839844 17.574219 23.933594 16.722656 C 24.105469 15.246094 24.644531 14.355469 25.496094 14.089844 C 25.921875 13.96875 26.902344 14.050781 27.5625 14.277344 Z M 38.464844 14.078125 C 39.363281 14.316406 39.894531 15.1875 40.066406 16.722656 C 40.160156 17.5625 40.042969 19.613281 39.894531 19.761719 C 39.871094 19.785156 39.285156 19.707031 38.625 19.574219 C 37.964844 19.425781 37.089844 19.28125 36.703125 19.246094 C 36.015625 19.152344 35.988281 19.136719 35.40625 18.394531 C 35.089844 18 34.503906 17.332031 34.160156 16.964844 C 33.800781 16.566406 33.496094 16.207031 33.496094 16.144531 C 33.496094 15.824219 35.628906 14.527344 36.703125 14.183594 C 37.527344 13.917969 37.871094 13.90625 38.480469 14.078125 Z M 32.753906 18.183594 L 33.40625 18.886719 L 32.714844 18.925781 C 32.316406 18.953125 31.699219 18.953125 31.296875 18.925781 L 30.609375 18.886719 L 31.261719 18.183594 C 31.613281 17.796875 31.957031 17.496094 32.015625 17.496094 C 32.066406 17.496094 32.410156 17.8125 32.769531 18.183594 Z M 34.53125 20.859375 C 34.980469 20.925781 35.0625 21.019531 35.734375 22.035156 C 36.136719 22.644531 36.796875 23.761719 37.175781 24.515625 L 37.894531 25.890625 L 37.175781 27.253906 C 36.1875 29.175781 35.074219 30.832031 34.714844 30.925781 C 34.332031 31.03125 29.65625 31.03125 29.269531 30.925781 C 28.910156 30.832031 27.800781 29.175781 26.808594 27.253906 L 26.09375 25.890625 L 26.808594 24.515625 C 27.191406 23.777344 27.855469 22.644531 28.25 22.027344 C 28.847656 21.125 29.058594 20.910156 29.339844 20.859375 C 29.90625 20.765625 34 20.765625 34.515625 20.859375 Z M 26.359375 21.5625 C 26.25 21.71875 25.957031 22.222656 25.71875 22.660156 C 25.484375 23.097656 25.230469 23.484375 25.175781 23.511719 C 25.058594 23.5625 24.472656 21.761719 24.582031 21.667969 C 24.671875 21.5625 25.878906 21.28125 26.277344 21.269531 C 26.558594 21.253906 26.558594 21.269531 26.359375 21.5625 Z M 38.980469 21.519531 C 39.234375 21.574219 39.441406 21.707031 39.441406 21.785156 C 39.441406 21.878906 39.328125 22.328125 39.167969 22.78125 L 38.859375 23.628906 L 38.332031 22.730469 C 38.027344 22.222656 37.707031 21.683594 37.605469 21.519531 L 37.417969 21.230469 L 37.964844 21.324219 C 38.265625 21.375 38.730469 21.453125 38.996094 21.535156 Z M 23.109375 23.46875 C 23.339844 24.105469 23.628906 24.902344 23.777344 25.246094 L 24.035156 25.878906 L 23.628906 26.953125 C 23.390625 27.535156 23.109375 28.34375 22.988281 28.738281 C 22.875 29.140625 22.6875 29.484375 22.609375 29.511719 C 22.515625 29.546875 21.890625 29.3125 21.246094 28.980469 C 19.160156 27.984375 18.027344 26.609375 18.355469 25.511719 C 18.542969 24.902344 18.980469 24.300781 19.65625 23.785156 C 20.316406 23.269531 22.421875 22.183594 22.636719 22.265625 C 22.703125 22.292969 22.925781 22.816406 23.136719 23.453125 Z M 42.796875 22.847656 C 44.425781 23.65625 45.355469 24.53125 45.65625 25.519531 C 45.972656 26.609375 44.839844 27.984375 42.769531 28.996094 C 42.109375 29.324219 41.5 29.5625 41.40625 29.519531 C 41.3125 29.496094 41.140625 29.140625 41.019531 28.753906 C 40.902344 28.359375 40.609375 27.546875 40.386719 26.96875 L 39.964844 25.890625 L 40.34375 24.953125 C 40.558594 24.4375 40.847656 23.65625 40.980469 23.230469 C 41.113281 22.792969 41.261719 22.378906 41.285156 22.34375 C 41.355469 22.207031 41.722656 22.34375 42.808594 22.859375 Z M 25.839844 29.347656 C 26.222656 29.984375 26.53125 30.53125 26.53125 30.558594 C 26.53125 30.621094 24.703125 30.222656 24.609375 30.128906 C 24.542969 30.066406 25.019531 28.214844 25.109375 28.214844 C 25.140625 28.214844 25.46875 28.730469 25.839844 29.347656 Z M 39.40625 30.078125 C 39.363281 30.1875 37.457031 30.652344 37.457031 30.558594 C 37.457031 30.53125 37.777344 29.972656 38.171875 29.324219 L 38.890625 28.144531 L 39.167969 29.046875 C 39.328125 29.546875 39.441406 30.011719 39.417969 30.078125 Z M 25.347656 32.214844 C 25.972656 32.34375 26.824219 32.488281 27.246094 32.542969 C 28 32.609375 28.027344 32.636719 28.515625 33.269531 C 28.792969 33.640625 29.390625 34.316406 29.8125 34.796875 L 30.609375 35.65625 L 30.277344 35.921875 C 29.113281 36.875 27.546875 37.640625 26.558594 37.777344 C 24.816406 37.988281 23.890625 36.753906 23.878906 34.1875 C 23.878906 32.96875 24 31.984375 24.15625 31.984375 C 24.207031 31.984375 24.738281 32.105469 25.347656 32.222656 Z M 40.015625 32.488281 C 40.066406 32.78125 40.109375 33.535156 40.109375 34.1875 C 40.109375 36.769531 39.183594 38 37.433594 37.777344 C 36.4375 37.640625 34.875 36.875 33.707031 35.921875 L 33.378906 35.65625 L 34.171875 34.796875 C 34.609375 34.316406 35.191406 33.640625 35.46875 33.269531 C 35.972656 32.625 35.988281 32.609375 36.746094 32.542969 C 37.167969 32.488281 37.964844 32.359375 38.503906 32.238281 C 39.949219 31.90625 39.894531 31.90625 40 32.488281 Z M 33.269531 33.003906 C 33.21875 33.097656 32.910156 33.457031 32.582031 33.800781 L 31.984375 34.410156 L 31.40625 33.800781 C 30.449219 32.808594 30.421875 32.832031 31.984375 32.832031 C 33.125 32.832031 33.347656 32.859375 33.261719 33.003906 Z M 33.269531 33.003906 "/>
<path style=" stroke:none;fill-rule:nonzero;fill:rgb(100%,100%,100%);fill-opacity:1;" d="M 31.246094 23.074219 C 29.855469 23.511719 29.082031 24.515625 29.082031 25.878906 C 29.082031 27.125 29.683594 28.027344 30.875 28.542969 C 32.238281 29.152344 33.894531 28.542969 34.636719 27.152344 C 34.980469 26.515625 34.996094 25.253906 34.675781 24.644531 C 34.359375 24.050781 33.878906 23.574219 33.3125 23.28125 C 32.78125 23.019531 31.722656 22.886719 31.261719 23.046875 Z M 32.480469 24.980469 C 33.140625 25.3125 33.261719 26.222656 32.714844 26.703125 C 32.394531 26.980469 31.605469 26.980469 31.269531 26.703125 C 30.738281 26.214844 30.847656 25.3125 31.484375 24.980469 C 31.894531 24.765625 32.050781 24.765625 32.480469 24.980469 Z M 32.480469 24.980469 "/>
<path style=" stroke:none;fill-rule:nonzero;fill:rgb(100%,100%,100%);fill-opacity:1;" d="M 16.859375 48.28125 C 16.59375 48.53125 16.59375 48.625 16.59375 53.078125 C 16.59375 58.230469 16.59375 58.160156 17.46875 58.160156 C 18.121094 58.160156 18.449219 57.433594 18.449219 55.964844 L 18.449219 54.015625 L 19.65625 54.015625 L 20.671875 55.964844 C 21.230469 57.035156 21.769531 58.003906 21.878906 58.097656 C 22 58.1875 22.207031 58.28125 22.371094 58.28125 C 22.738281 58.28125 23.425781 57.722656 23.425781 57.433594 C 23.425781 57.3125 23.046875 56.503906 22.566406 55.644531 C 21.46875 53.65625 21.496094 53.714844 21.839844 53.621094 C 22.238281 53.515625 22.753906 52.996094 23.074219 52.410156 C 23.269531 52.03125 23.339844 51.6875 23.339844 51.035156 C 23.339844 49.59375 22.78125 48.71875 21.574219 48.292969 C 21.324219 48.214844 20.300781 48.109375 19.136719 48.082031 C 17.21875 48.03125 17.109375 48.042969 16.859375 48.292969 Z M 20.609375 49.777344 C 20.875 49.84375 21.152344 50.042969 21.28125 50.203125 C 21.535156 50.582031 21.5625 51.566406 21.339844 51.972656 C 21.097656 52.4375 20.699219 52.558594 19.519531 52.558594 L 18.464844 52.558594 L 18.464844 49.628906 L 19.308594 49.628906 C 19.769531 49.628906 20.355469 49.699219 20.609375 49.765625 Z M 20.609375 49.777344 "/>
<path style=" stroke:none;fill-rule:nonzero;fill:rgb(100%,100%,100%);fill-opacity:1;" d="M 44.316406 48.984375 C 44.042969 49.167969 44.042969 49.183594 44.042969 52.984375 C 44.042969 56.785156 44.042969 56.8125 44.316406 57.199219 C 44.839844 57.953125 45.183594 58.109375 46.386719 58.136719 C 47.277344 58.175781 47.511719 58.136719 47.671875 57.980469 C 47.894531 57.765625 47.949219 57.234375 47.792969 56.984375 C 47.644531 56.761719 47.0625 56.589844 46.519531 56.589844 C 45.855469 56.589844 45.792969 56.347656 45.792969 54.503906 L 45.792969 53.0625 L 46.691406 53.0625 C 47.738281 53.0625 47.894531 52.96875 47.894531 52.308594 C 47.894531 51.722656 47.671875 51.605469 46.597656 51.605469 L 45.777344 51.605469 L 45.777344 50.402344 C 45.777344 49.277344 45.75 49.167969 45.5 48.996094 C 45.355469 48.890625 45.074219 48.796875 44.902344 48.796875 C 44.730469 48.796875 44.453125 48.890625 44.308594 48.996094 Z M 44.316406 48.984375 "/>
<path style=" stroke:none;fill-rule:nonzero;fill:rgb(100%,100%,100%);fill-opacity:1;" d="M 25.855469 51.886719 C 24.582031 52.46875 24.171875 53.207031 24.171875 54.941406 C 24.171875 56.675781 24.558594 57.371094 25.71875 57.964844 C 26.410156 58.324219 28.183594 58.402344 28.910156 58.109375 C 29.921875 57.722656 30.277344 57.113281 29.785156 56.667969 C 29.484375 56.402344 29.417969 56.417969 28.488281 56.71875 C 27.21875 57.128906 26.171875 56.71875 25.972656 55.75 L 25.878906 55.355469 L 27.683594 55.355469 C 29.949219 55.355469 30.066406 55.300781 30.066406 54.09375 C 30.066406 53.40625 30 53.234375 29.691406 52.796875 C 28.875 51.65625 27.191406 51.261719 25.839844 51.886719 Z M 27.605469 53.046875 C 27.894531 53.046875 28.394531 53.621094 28.394531 53.9375 C 28.394531 54.308594 28.144531 54.386719 26.925781 54.386719 C 25.890625 54.386719 25.785156 54.296875 26.078125 53.621094 C 26.214844 53.285156 26.359375 53.140625 26.675781 53.0625 C 26.902344 52.996094 27.152344 52.96875 27.246094 52.996094 C 27.339844 53.019531 27.496094 53.046875 27.589844 53.046875 Z M 27.605469 53.046875 "/>
<path style=" stroke:none;fill-rule:nonzero;fill:rgb(100%,100%,100%);fill-opacity:1;" d="M 32.199219 51.765625 C 31.269531 52.121094 31.019531 52.613281 31.484375 53.183594 C 31.640625 53.359375 31.902344 53.378906 32.265625 53.25 C 33.003906 52.957031 33.90625 52.941406 34.222656 53.222656 C 34.515625 53.484375 34.808594 54.253906 34.660156 54.386719 C 34.597656 54.441406 34.078125 54.503906 33.496094 54.53125 C 31.640625 54.625 30.886719 55.199219 30.886719 56.496094 C 30.886719 57.222656 31.21875 57.859375 31.761719 58.125 C 32.488281 58.480469 33.8125 58.203125 34.421875 57.550781 C 34.730469 57.222656 34.875 57.222656 34.875 57.605469 C 34.875 57.953125 35.175781 58.152344 35.707031 58.152344 C 36.488281 58.152344 36.515625 58.082031 36.464844 55.515625 C 36.421875 53.222656 36.421875 53.191406 36.078125 52.691406 C 35.589844 51.964844 34.917969 51.65625 33.699219 51.605469 C 33.019531 51.578125 32.542969 51.628906 32.214844 51.75 Z M 34.675781 55.75 C 34.453125 56.847656 32.910156 57.34375 32.660156 56.417969 C 32.503906 55.777344 33.097656 55.421875 34.34375 55.378906 C 34.753906 55.371094 34.753906 55.378906 34.675781 55.765625 Z M 34.675781 55.75 "/>
<path style=" stroke:none;fill-rule:nonzero;fill:rgb(100%,100%,100%);fill-opacity:1;" d="M 39.550781 51.714844 C 38.832031 51.921875 38.34375 52.332031 38.015625 52.996094 C 37.707031 53.628906 37.683594 53.738281 37.722656 55.167969 C 37.777344 56.613281 37.785156 56.703125 38.144531 57.207031 C 38.675781 57.953125 39.285156 58.214844 40.546875 58.28125 C 41.441406 58.324219 41.65625 58.28125 42.253906 57.988281 C 42.980469 57.644531 43.191406 57.285156 42.941406 56.839844 C 42.703125 56.417969 42.371094 56.324219 41.871094 56.519531 C 41.167969 56.796875 40.292969 56.761719 39.894531 56.425781 C 39.296875 55.921875 39.296875 54.058594 39.894531 53.472656 C 40.253906 53.128906 41.011719 53.089844 41.792969 53.355469 C 42.265625 53.527344 42.316406 53.515625 42.609375 53.285156 C 42.996094 52.996094 43.046875 52.46875 42.71875 52.175781 C 42.121094 51.65625 40.515625 51.421875 39.550781 51.714844 Z M 39.550781 51.714844 "/>
</g>
</svg>
