<?xml version="1.0" encoding="UTF-8"?>
<svg xmlns="http://www.w3.org/2000/svg" xmlns:xlink="http://www.w3.org/1999/xlink" width="64px" height="64px" viewBox="0 0 64 64" version="1.1">
<g id="surface1">
<path style=" stroke:none;fill-rule:nonzero;fill:rgb(100%,100%,100%);fill-opacity:1;" d="M 7.042969 0.425781 L 6.609375 0.855469 L 6.609375 63.160156 L 7.042969 63.585938 L 7.472656 64.011719 L 56.527344 64.011719 L 56.957031 63.585938 L 57.390625 63.160156 L 57.390625 13.878906 L 49.683594 6.945312 L 41.960938 0 L 7.472656 0 Z M 40.847656 7.878906 C 40.847656 14.242188 40.871094 14.625 41.273438 14.890625 C 41.347656 14.945312 44.671875 14.988281 48.644531 14.988281 L 55.867188 14.988281 L 55.867188 62.480469 L 8.117188 62.480469 L 8.117188 1.492188 L 40.832031 1.492188 L 40.832031 7.878906 Z M 54.226562 13.066406 L 54.671875 13.492188 L 42.476562 13.492188 L 42.476562 2.492188 L 48.132812 7.574219 C 51.246094 10.375 53.984375 12.855469 54.226562 13.078125 Z M 54.226562 13.066406 "/>
<path style=" stroke:none;fill-rule:nonzero;fill:rgb(100%,100%,100%);fill-opacity:1;" d="M 14.8125 4.535156 C 14.582031 4.652344 14.492188 4.8125 14.460938 5.089844 C 14.371094 5.921875 13.738281 5.867188 24.476562 5.867188 C 33.757812 5.867188 34.242188 5.867188 34.433594 5.640625 C 34.714844 5.332031 34.699219 4.945312 34.378906 4.667969 C 34.121094 4.441406 33.757812 4.425781 24.609375 4.398438 C 17.144531 4.375 15.058594 4.398438 14.8125 4.519531 Z M 14.8125 4.535156 "/>
<path style=" stroke:none;fill-rule:nonzero;fill:rgb(100%,100%,100%);fill-opacity:1;" d="M 14.652344 9.855469 C 14.382812 10.132812 14.371094 10.679688 14.636719 10.933594 C 14.8125 11.109375 15.878906 11.132812 24.488281 11.132812 C 33.976562 11.132812 34.136719 11.132812 34.390625 10.878906 C 34.523438 10.746094 34.644531 10.519531 34.644531 10.375 C 34.644531 10.226562 34.523438 10.011719 34.390625 9.867188 C 34.136719 9.613281 33.976562 9.613281 24.5 9.613281 C 15.027344 9.613281 14.839844 9.613281 14.652344 9.839844 Z M 14.652344 9.855469 "/>
<path style=" stroke:none;fill-rule:nonzero;fill:rgb(100%,100%,100%);fill-opacity:1;" d="M 15.988281 19.199219 C 15.648438 19.425781 15.609375 20.011719 15.902344 20.308594 C 16.078125 20.480469 17.710938 20.507812 32.007812 20.507812 C 49.507812 20.507812 48.296875 20.558594 48.296875 19.757812 C 48.296875 18.957031 49.332031 19.011719 32.007812 19.011719 C 17.980469 19.011719 16.242188 19.042969 15.988281 19.210938 Z M 15.988281 19.199219 "/>
<path style=" stroke:none;fill-rule:nonzero;fill:rgb(100%,100%,100%);fill-opacity:1;" d="M 15.988281 24.824219 C 15.648438 25.066406 15.621094 25.625 15.933594 25.921875 C 16.148438 26.121094 17.441406 26.132812 32.035156 26.132812 C 46.625 26.132812 47.890625 26.132812 48.078125 25.910156 C 48.390625 25.574219 48.351562 25.054688 48.011719 24.824219 C 47.757812 24.652344 46.035156 24.625 31.992188 24.625 C 17.953125 24.625 16.230469 24.652344 15.976562 24.824219 Z M 15.988281 24.824219 "/>
<path style=" stroke:none;fill-rule:nonzero;fill:rgb(100%,100%,100%);fill-opacity:1;" d="M 15.921875 30.480469 C 15.609375 30.8125 15.648438 31.332031 15.988281 31.558594 C 16.242188 31.734375 17.964844 31.757812 32.007812 31.757812 C 46.046875 31.757812 47.769531 31.734375 48.023438 31.558594 C 48.363281 31.320312 48.390625 30.757812 48.078125 30.464844 C 47.867188 30.265625 46.570312 30.253906 31.980469 30.253906 C 17.386719 30.253906 16.121094 30.253906 15.933594 30.480469 Z M 15.921875 30.480469 "/>
<path style=" stroke:none;fill-rule:nonzero;fill:rgb(100%,100%,100%);fill-opacity:1;" d="M 12.484375 36.242188 C 12.351562 36.308594 12.089844 36.507812 11.917969 36.691406 L 11.609375 37.023438 L 11.566406 47.132812 C 11.523438 58.210938 11.5 57.722656 12.265625 58.210938 C 12.589844 58.425781 13.707031 58.441406 32.007812 58.441406 C 50.304688 58.441406 51.421875 58.441406 51.746094 58.210938 C 52.5 57.722656 52.476562 58.210938 52.445312 47.121094 L 52.402344 37 L 51.988281 36.601562 L 51.582031 36.1875 L 32.152344 36.160156 C 21.484375 36.160156 12.617188 36.1875 12.484375 36.242188 Z M 50.925781 47.277344 L 50.882812 56.945312 L 31.964844 56.988281 L 13.050781 57.011719 L 13.050781 37.640625 L 50.9375 37.640625 L 50.910156 47.292969 Z M 50.925781 47.277344 "/>
<path style=" stroke:none;fill-rule:nonzero;fill:rgb(100%,100%,100%);fill-opacity:1;" d="M 17.226562 40.734375 C 15.515625 41.277344 14.515625 42.613281 14.503906 44.308594 C 14.503906 45.023438 14.570312 45.320312 14.855469 45.890625 C 15.476562 47.132812 16.765625 47.988281 18.007812 47.988281 C 19.339844 47.988281 20.402344 48.988281 20.402344 50.242188 C 20.402344 52.175781 18.074219 53.144531 16.660156 51.789062 C 16.242188 51.386719 15.957031 50.722656 15.957031 50.160156 C 15.957031 49.824219 15.582031 49.480469 15.234375 49.480469 C 15.082031 49.480469 14.828125 49.601562 14.691406 49.746094 C 14.460938 49.976562 14.4375 50.109375 14.503906 50.640625 C 14.921875 53.734375 18.804688 55.042969 20.902344 52.773438 C 21.644531 51.988281 21.929688 51.277344 21.929688 50.242188 C 21.929688 48.359375 20.527344 46.789062 18.613281 46.546875 C 17.398438 46.398438 17.226562 46.332031 16.832031 46.023438 C 16.363281 45.640625 15.957031 44.839844 15.957031 44.308594 C 15.957031 43.242188 16.917969 42.242188 18.035156 42.144531 C 19.261719 42.054688 20.125 42.722656 20.402344 44 C 20.476562 44.375 20.621094 44.746094 20.703125 44.855469 C 20.917969 45.078125 21.484375 45.066406 21.742188 44.8125 C 22.195312 44.375 21.765625 42.734375 20.972656 41.800781 C 20.421875 41.132812 19.4375 40.707031 18.425781 40.667969 C 17.941406 40.640625 17.386719 40.667969 17.210938 40.734375 Z M 17.226562 40.734375 "/>
<path style=" stroke:none;fill-rule:nonzero;fill:rgb(100%,100%,100%);fill-opacity:1;" d="M 27.332031 40.789062 C 27.207031 40.945312 25.875 44.464844 23.652344 50.585938 C 23.167969 51.890625 22.777344 53.121094 22.777344 53.308594 C 22.777344 53.519531 22.898438 53.707031 23.101562 53.839844 C 23.394531 54.023438 23.460938 54.023438 23.761719 53.867188 C 24.097656 53.679688 24.234375 53.398438 25.175781 50.839844 L 25.699219 49.375 L 27.859375 49.398438 L 30.023438 49.441406 L 30.808594 51.558594 C 31.550781 53.519531 31.804688 54 32.195312 54 C 32.425781 54 33.003906 53.492188 33.003906 53.308594 C 33.003906 52.988281 28.570312 41.054688 28.371094 40.824219 C 28.125 40.574219 27.535156 40.546875 27.332031 40.773438 Z M 28.703125 45.8125 L 29.445312 47.8125 L 27.925781 47.855469 C 27.085938 47.867188 26.386719 47.867188 26.363281 47.855469 C 26.332031 47.8125 26.628906 46.921875 27.019531 45.878906 C 27.894531 43.464844 27.871094 43.546875 27.914062 43.707031 C 27.949219 43.773438 28.300781 44.734375 28.703125 45.824219 Z M 28.703125 45.8125 "/>
<path style=" stroke:none;fill-rule:nonzero;fill:rgb(100%,100%,100%);fill-opacity:1;" d="M 36.171875 40.839844 C 35.332031 41.132812 34.269531 42.253906 33.988281 43.121094 C 33.515625 44.574219 33.8125 45.8125 34.875 46.878906 C 35.660156 47.640625 36.4375 48 37.355469 48 C 38.300781 48 39.253906 48.625 39.566406 49.414062 C 40.363281 51.507812 38.003906 53.292969 36.171875 52 C 35.710938 51.691406 35.296875 50.878906 35.277344 50.332031 C 35.277344 49.921875 34.875 49.492188 34.488281 49.492188 C 33.246094 49.492188 33.757812 52.042969 35.210938 53.132812 C 37.113281 54.558594 39.796875 53.988281 40.847656 51.910156 C 41.25 51.121094 41.347656 49.878906 41.046875 49.023438 C 40.605469 47.746094 39.285156 46.722656 37.8125 46.558594 C 36.773438 46.441406 36.386719 46.277344 35.941406 45.839844 C 34.1875 44.042969 36.226562 41.292969 38.527344 42.386719 C 39.164062 42.691406 39.699219 43.492188 39.699219 44.089844 C 39.699219 44.855469 40.496094 45.320312 41.035156 44.867188 C 41.328125 44.625 41.207031 43.375 40.847656 42.652344 C 40.007812 41.011719 37.960938 40.226562 36.160156 40.839844 Z M 36.171875 40.839844 "/>
<path style=" stroke:none;fill-rule:nonzero;fill:rgb(100%,100%,100%);fill-opacity:1;" d="M 44.589844 40.800781 C 42.136719 41.691406 41.273438 44.535156 42.835938 46.558594 C 43.488281 47.386719 44.351562 47.839844 45.585938 48 C 46.691406 48.132812 47.289062 48.441406 47.664062 49.042969 C 48.972656 51.1875 46.316406 53.535156 44.386719 51.933594 C 43.917969 51.546875 43.6875 51.121094 43.566406 50.441406 C 43.472656 49.855469 43.191406 49.507812 42.824219 49.507812 C 41.640625 49.507812 41.925781 51.679688 43.285156 52.976562 C 45.0625 54.667969 48.097656 54.042969 49.199219 51.789062 C 49.617188 50.933594 49.605469 49.546875 49.199219 48.707031 C 48.578125 47.453125 47.445312 46.691406 45.992188 46.546875 C 45.050781 46.453125 44.375 46.144531 44.011719 45.625 C 42.960938 44.175781 44.011719 42.132812 45.792969 42.132812 C 47.058594 42.132812 47.769531 42.855469 48.109375 44.519531 C 48.230469 45.144531 49.132812 45.226562 49.441406 44.625 C 49.75 44.078125 49.308594 42.691406 48.554688 41.839844 C 47.664062 40.855469 45.804688 40.359375 44.605469 40.8125 Z M 44.589844 40.800781 "/>
</g>
</svg>
